<svg width="193" height="193" viewBox="0 0 193 193" fill="none" xmlns="http://www.w3.org/2000/svg">
<g clip-path="url(#clip0_5030_5687)">
<path d="M96.3165 192.727C43.4187 192.727 0.382812 149.691 0.382812 96.793C0.382812 43.8948 43.4187 0.859375 96.3165 0.859375C149.214 0.859375 192.251 43.8953 192.251 96.793C192.251 149.691 149.215 192.727 96.3165 192.727ZM96.3165 6.52234C46.5411 6.52234 6.04577 47.0177 6.04577 96.793C6.04577 146.568 46.5411 187.064 96.3165 187.064C146.092 187.064 186.588 146.568 186.588 96.793C186.588 47.0177 146.092 6.52234 96.3165 6.52234Z" fill="#92E93B"/>
<path d="M96.3148 178.856C51.0657 178.856 14.2539 142.044 14.2539 96.7953C14.2539 51.5467 51.0657 14.7344 96.3148 14.7344C141.564 14.7344 178.376 51.5467 178.376 96.7953C178.376 142.044 141.563 178.856 96.3148 178.856ZM96.3148 20.3973C54.1886 20.3973 19.9169 54.6691 19.9169 96.7953C19.9169 138.922 54.1886 173.193 96.3148 173.193C138.441 173.193 172.713 138.922 172.713 96.7953C172.713 54.6691 138.441 20.3973 96.3148 20.3973Z" fill="#89DD35"/>
<path d="M96.3195 161.854C132.251 161.854 161.379 132.726 161.379 96.7941C161.379 60.8626 132.251 31.7344 96.3195 31.7344C60.388 31.7344 31.2598 60.8626 31.2598 96.7941C31.2598 132.726 60.388 161.854 96.3195 161.854Z" fill="#6CC610"/>
<path d="M87.2582 119.443C85.7522 119.443 84.3078 118.844 83.2435 117.78L67.4209 101.957C65.2035 99.7395 65.2035 96.1445 67.4209 93.9271C69.6383 91.7097 73.2333 91.7097 75.4508 93.9271L87.2582 105.735L117.186 75.8076C119.403 73.5902 122.998 73.5902 125.215 75.8076C127.433 78.025 127.433 81.62 125.215 83.8375L91.2733 117.78C90.2085 118.844 88.7646 119.443 87.2586 119.443H87.2582Z" fill="#CBFD99"/>
</g>
<defs>
<clipPath id="clip0_5030_5687">
<rect width="191.867" height="191.867" fill="white" transform="translate(0.382812 0.859375)"/>
</clipPath>
</defs>
</svg>
