<svg width="27" height="32" viewBox="0 0 27 32" fill="none" xmlns="http://www.w3.org/2000/svg">
<path d="M26.25 23.3617C25.5321 25.0007 25.1888 25.7335 24.2668 27.1819C22.9788 29.2046 21.1601 31.7287 18.9116 31.746C16.9117 31.7634 16.3955 30.4004 13.6812 30.4227C10.967 30.4363 10.4016 31.7708 8.39925 31.7498C6.1508 31.7287 4.42935 29.4547 3.14006 27.4357C-0.464905 21.7722 -0.845449 15.1346 1.38259 11.6028C2.95879 9.09855 5.45333 7.62792 7.79542 7.62792C10.1807 7.62792 11.6801 8.97971 13.6524 8.97971C15.566 8.97971 16.7316 7.62421 19.4902 7.62421C21.5766 7.62421 23.7831 8.7965 25.3593 10.8192C20.2021 13.7333 21.04 21.3291 26.25 23.3617V23.3617ZM17.3967 5.36379C18.4002 4.03552 19.1613 2.16133 18.8852 0.25C17.2478 0.365125 15.3331 1.44334 14.2142 2.8397C13.2011 4.11103 12.3607 6.00007 12.6885 7.82722C14.4747 7.88664 16.3234 6.78862 17.3967 5.36379V5.36379Z" fill="white"/>
</svg>
