<svg width="170" height="178" viewBox="0 0 170 178" fill="none" xmlns="http://www.w3.org/2000/svg">
<g clip-path="url(#clip0_5030_5697)">
<path d="M134.245 93.6975C134.245 120.91 112.186 142.97 84.9755 142.97C57.7655 142.97 35.7031 120.91 35.7031 93.6975C35.7031 66.485 57.7629 44.4277 84.9755 44.4277C112.188 44.4277 134.245 66.4875 134.245 93.6975Z" fill="#C58DFF"/>
<path d="M84.9747 50.5506C90.8045 50.5506 96.454 51.6899 101.767 53.9371C106.904 56.1096 111.519 59.2222 115.485 63.1883C119.451 67.1544 122.564 71.7703 124.737 76.9066C126.984 82.2189 128.123 87.869 128.123 93.6988C128.123 99.5285 126.984 105.178 124.737 110.491C122.564 115.628 119.451 120.243 115.485 124.209C111.519 128.175 106.903 131.288 101.767 133.461C96.4545 135.708 90.805 136.847 84.9747 136.847C79.1444 136.847 73.4954 135.708 68.1825 133.461C63.0457 131.288 58.4303 128.175 54.4642 124.209C50.4981 120.243 47.3855 115.627 45.213 110.491C42.9658 105.179 41.8265 99.5285 41.8265 93.6988C41.8265 87.869 42.9658 82.2194 45.213 76.9066C47.3855 71.7697 50.4981 67.1544 54.4642 63.1883C58.4303 59.2222 63.0462 56.1096 68.1825 53.9371C73.4948 51.6899 79.1449 50.5506 84.9747 50.5506ZM84.9747 39.7344C55.1705 39.7344 31.0098 63.8951 31.0098 93.6993C31.0098 123.503 55.1705 147.664 84.9747 147.664C114.779 147.664 138.94 123.503 138.94 93.6993C138.94 63.8951 114.779 39.7344 84.9747 39.7344Z" fill="#B371F8"/>
<path d="M0.527344 90.56C1.21205 69.0264 9.92014 48.8812 25.2235 33.5778C41.1771 17.6242 62.3911 8.83784 84.9569 8.83784H87.7081V0.246094L105.746 15.8934L87.7081 31.5406V22.9489H84.9569C47.08 22.9489 16.0969 53.0321 14.6472 90.5605H0.527344V90.56Z" fill="#B371F8"/>
<path d="M137.076 126.582L144.515 130.876L145.891 128.493C150.633 120.28 153.623 111.375 154.778 102.023C155.893 92.9953 155.259 83.9397 152.892 75.1081C150.526 66.2764 146.548 58.1171 141.069 50.8562C135.943 44.0647 129.704 38.3364 122.494 33.7978L129.554 21.5684C147.861 32.9308 160.953 50.5447 166.555 71.4467C172.392 93.2424 169.394 116.008 158.113 135.549L156.738 137.932C156.738 137.932 162.622 141.328 164.177 142.225L141.609 150.023L137.076 126.582Z" fill="#C387FF"/>
<path d="M85.087 177.823C77.7102 177.823 70.3103 176.842 63.091 174.909C41.3015 169.069 23.0853 155.09 11.7995 135.547L10.424 133.166C10.424 133.166 4.53912 136.561 2.98438 137.459L7.51474 114.018L30.0853 121.815L22.6467 126.109L24.0223 128.492C30.3051 139.376 39.3941 148.381 50.3056 154.535C60.8933 160.505 72.9132 163.661 85.0659 163.661C96.4263 163.661 107.66 160.873 117.728 155.574L124.788 167.805C112.527 174.366 98.8604 177.822 85.0906 177.823H85.087Z" fill="#CA98FE"/>
<path d="M72.4842 90.6726C71.9684 90.0389 71.73 89.3768 71.7717 88.6839C71.8088 87.9909 72.1064 87.3572 72.6613 86.7847C73.2142 86.2123 74.0271 85.9039 75.0938 85.8647H89.575C89.0613 84.361 88.1521 83.1743 86.8455 82.3048C85.7767 81.6314 84.7188 81.1856 83.6701 80.9694C82.6235 80.7506 81.5635 80.6219 80.4968 80.5827C79.4281 80.5436 78.3397 80.5436 77.2318 80.5827C76.124 80.6219 74.9765 80.5632 73.7898 80.4057L72.6618 80.3444C71.8706 80.0298 71.3264 79.6231 71.0294 79.1294C70.7323 78.6357 70.6227 78.1199 70.7035 77.5865C70.7823 77.0511 71.0005 76.5569 71.3568 76.1023C71.713 75.6477 72.1656 75.3002 72.7205 75.0645C76.3201 75.0645 79.9413 75.0732 83.5826 75.0928C87.2213 75.1123 91.0788 75.1036 95.1546 75.0645C96.0638 75.3399 96.7567 75.7466 97.2309 76.2794C97.7071 76.8148 97.9629 77.3785 98.0046 77.9711C98.0417 78.5657 97.845 79.1186 97.41 79.6345C96.975 80.1482 96.3021 80.5045 95.393 80.7012H93.6117C94.1646 81.4945 94.6105 82.3249 94.9471 83.1949C95.2838 84.065 95.5304 84.9566 95.688 85.8658H98.7151C99.6263 86.1433 100.298 86.5695 100.735 87.142C101.17 87.7145 101.366 88.3199 101.327 88.9516C101.288 89.5853 101.03 90.1691 100.555 90.7019C100.081 91.2353 99.3879 91.6024 98.4788 91.799H95.2138C94.8967 92.8173 94.4509 93.7857 93.8784 94.7057C93.3059 95.6256 92.6022 96.456 91.7718 97.2015C90.111 98.7053 88.428 99.8523 86.7276 100.644C85.0251 101.435 83.0668 101.988 80.851 102.304C84.0573 105.351 87.2218 108.398 90.3473 111.444C90.9022 112.196 91.1689 112.937 91.1493 113.669C91.1298 114.402 90.9218 115.005 90.5264 115.481C90.131 115.955 89.5756 116.261 88.8656 116.401C88.1531 116.538 87.3814 116.39 86.549 115.955C84.1757 113.661 81.8106 111.376 79.4569 109.099C77.1031 106.826 74.7386 104.56 72.3648 102.305C71.8907 101.673 71.6327 101.068 71.5931 100.495C71.554 99.9228 71.6523 99.3961 71.8901 98.9215C72.128 98.4468 72.4734 98.0406 72.928 97.7039C73.3826 97.3693 73.848 97.1402 74.3221 97.0218C75.5484 96.9827 76.7567 96.906 77.9433 96.7881C79.13 96.6702 80.2971 96.4648 81.4446 96.1719C82.5921 95.8789 83.7087 95.4681 84.7971 94.9394C85.8854 94.4107 86.9037 93.7177 87.8545 92.8564C88.1717 92.6207 88.4862 92.2685 88.8028 91.7985H74.857C73.7883 91.6806 72.997 91.3048 72.4837 90.6731L72.4842 90.6726Z" fill="#E2CFFC"/>
</g>
<defs>
<clipPath id="clip0_5030_5697">
<rect width="168.941" height="177.578" fill="white" transform="translate(0.527344 0.246094)"/>
</clipPath>
</defs>
</svg>
