<svg width="166" height="204" viewBox="0 0 166 204" fill="none" xmlns="http://www.w3.org/2000/svg">
<g clip-path="url(#clip0_5002_5666)">
<path fill-rule="evenodd" clip-rule="evenodd" d="M71.4394 62.5843C76.9788 61.4378 82.4487 65.0317 83.5952 70.5706L91.4034 108.296C90.2569 102.757 93.8508 97.2864 99.3897 96.1404C104.929 94.9939 110.399 98.5878 111.546 104.127L112.784 110.109C111.637 104.57 115.231 99.1001 120.77 97.9541C126.309 96.8076 131.779 100.402 132.926 105.94L134.229 112.239C133.083 106.699 136.677 101.229 142.216 100.083C147.755 98.9369 153.225 102.531 154.371 108.07C158.378 127.426 165.768 149.601 165.508 165.686C165.316 177.589 157.645 186.84 146.974 193.01C126.94 204.592 107.584 206.194 94.6385 198.91C79.5863 190.44 57.6908 172.78 46.6907 165.164C41.2538 161.4 39.8854 153.871 43.6497 148.434C47.414 142.997 54.9422 141.629 60.3791 145.394L81.0366 159.696L63.4531 74.7391C62.3066 69.1997 65.9005 63.7303 71.4394 62.5843Z" fill="#FA5FDA"/>
<path d="M50.4126 121.627C51.8186 122.26 52.4451 123.914 51.8114 125.321C51.1776 126.726 49.5241 127.353 48.1181 126.719C42.4279 124.146 37.22 120.698 32.6659 116.548C28.098 112.386 24.1818 107.507 21.0924 102.088C18.5976 97.7125 16.6459 92.9881 15.3301 88.0068C14.0508 83.1649 13.3691 78.096 13.3691 72.8866C13.3691 68.5395 13.8412 64.2959 14.737 60.2057C15.657 56.0048 17.0269 51.9656 18.7943 48.1416C19.4398 46.7413 21.0986 46.1297 22.4989 46.7757C23.8992 47.4213 24.5108 49.0801 23.8647 50.4804C22.2718 53.927 21.0347 57.5781 20.2007 61.3862C19.3909 65.0846 18.9636 68.9329 18.9636 72.8871C18.9636 77.6394 19.5768 82.2305 20.7279 86.5869C21.9197 91.0987 23.686 95.3758 25.9435 99.3352C28.7322 104.226 32.2783 108.64 36.4246 112.418C40.5503 116.178 45.265 119.299 50.4126 121.628V121.627ZM36.6995 33.1074C35.553 34.1396 33.7867 34.0464 32.7545 32.8999C31.7223 31.7535 31.8155 29.9871 32.962 28.9549C38.2908 24.1651 44.4964 20.3302 51.3074 17.7201C57.8692 15.2058 64.9896 13.8281 72.4266 13.8281C80.2369 13.8281 87.7037 15.3515 94.5456 18.1186C101.648 20.9907 108.061 25.1994 113.47 30.4309C114.674 31.5959 115.837 32.8212 116.954 34.1031C118.08 35.3947 119.135 36.7132 120.116 38.0543C121.028 39.2976 120.758 41.0443 119.516 41.9555C118.272 42.8668 116.526 42.5975 115.614 41.3548C114.695 40.0986 113.743 38.9042 112.758 37.7752C111.762 36.6318 110.708 35.5234 109.602 34.4531C104.696 29.7086 98.8907 25.8959 92.4704 23.2992C86.2911 20.8003 79.5259 19.4242 72.4276 19.4242C65.682 19.4242 59.2329 20.6705 53.2976 22.9445C47.1353 25.3054 41.5218 28.7747 36.7005 33.1084L36.6995 33.1074ZM124.597 61.1092C124.26 59.6065 125.204 58.114 126.707 57.7763C128.209 57.4386 129.702 58.3828 130.04 59.8855C130.518 62.0148 130.88 64.1667 131.12 66.3336C131.361 68.5153 131.484 70.7018 131.484 72.8861C131.484 75.8808 131.259 78.8322 130.825 81.7234C130.388 84.6404 129.726 87.513 128.859 90.3229C128.636 91.0442 128.398 91.7644 128.145 92.4836C127.848 93.3263 127.584 94.0409 127.352 94.6278C126.784 96.0641 125.16 96.7689 123.724 96.2016C122.287 95.6342 121.583 94.01 122.15 92.5737C122.45 91.8164 122.693 91.1739 122.878 90.6483C123.104 90.0042 123.321 89.3494 123.526 88.6848C124.297 86.1884 124.892 83.5865 125.296 80.8935C125.687 78.2901 125.89 75.6167 125.89 72.8866C125.89 70.848 125.78 68.8664 125.568 66.9462C125.347 64.9456 125.022 62.9981 124.597 61.1102V61.1092Z" fill="#FF7BE4"/>
<path d="M62.1305 112.625C63.6214 113.005 64.5213 114.522 64.1414 116.013C63.7615 117.504 62.2443 118.404 60.7539 118.024C50.5889 115.4 41.7717 109.442 35.5398 101.39C29.4367 93.5026 25.8047 83.614 25.8047 72.8863C25.8047 63.4678 28.6012 54.6979 33.4095 47.3623C38.3636 39.8043 45.4603 33.7717 53.8405 30.1248C55.2526 29.5091 56.8964 30.1552 57.5121 31.5673C58.1278 32.9794 57.4817 34.6232 56.0696 35.239C48.7 38.4463 42.4533 43.7602 38.0866 50.4224C33.8584 56.8725 31.3997 64.5906 31.3997 72.8868C31.3997 82.345 34.5915 91.0495 39.9549 97.9804C45.4449 105.075 53.2005 110.321 62.131 112.626L62.1305 112.625ZM82.8796 33.189C81.3887 32.8029 80.4934 31.2811 80.8801 29.7907C81.2662 28.2998 82.788 27.4045 84.2784 27.7911C94.3976 30.4455 103.171 36.4076 109.37 44.45C115.442 52.3282 119.054 62.1905 119.054 72.8863C119.054 74.8776 118.918 76.8931 118.656 78.921C118.391 80.9648 118.002 82.9422 117.498 84.8455C117.106 86.3364 115.58 87.2265 114.089 86.8342C112.598 86.4419 111.708 84.9155 112.1 83.4246C112.555 81.7051 112.9 79.9676 113.126 78.2213C113.345 76.5276 113.459 74.7474 113.459 72.8863C113.459 63.4565 110.287 54.7777 104.955 47.8596C99.4937 40.7732 91.7741 35.5221 82.8801 33.1895L82.8796 33.189Z" fill="#FA5FDA"/>
<path d="M58.902 94.5033C60.2055 95.3239 60.5968 97.046 59.7762 98.35C58.9556 99.6535 57.233 100.045 55.9295 99.2241C51.482 96.4338 47.7872 92.5351 45.2265 87.9095C42.7523 83.4404 41.3438 78.3175 41.3438 72.8857C41.3438 71.3407 42.5963 70.0882 44.1413 70.0882C45.6862 70.0882 46.9388 71.3407 46.9388 72.8857C46.9388 77.378 48.0858 81.5825 50.1002 85.2217C52.1935 89.003 55.2319 92.201 58.902 94.5033ZM53.0887 56.2706C52.0869 57.4413 50.3257 57.5782 49.155 56.5764C47.9843 55.5745 47.8474 53.8134 48.8492 52.6427C51.7518 49.266 55.3719 46.5184 59.476 44.6332C63.4324 42.8159 67.8202 41.8027 72.4277 41.8027C81.0107 41.8027 88.7813 45.2819 94.4067 50.9072C100.032 56.5321 103.511 64.3027 103.511 72.8862C103.511 76.3458 102.937 79.689 101.878 82.8257C100.782 86.0732 99.1698 89.0746 97.1409 91.731C96.2055 92.9563 94.4541 93.191 93.2288 92.2556C92.0036 91.3202 91.7688 89.5688 92.7042 88.3435C94.3738 86.1571 95.6958 83.7004 96.589 81.0553C97.4498 78.5065 97.9162 75.7599 97.9162 72.8862C97.9162 65.8477 95.0636 59.4753 90.4514 54.8631C85.8392 50.2508 79.4668 47.3983 72.4283 47.3983C68.6176 47.3983 65.0165 48.224 61.7932 49.7041C58.4387 51.245 55.4734 53.4978 53.0898 56.2711L53.0887 56.2706Z" fill="#FA5FDA"/>
<path d="M35.9436 137.723C25.2252 131.293 16.2504 122.177 9.9908 111.361C3.5376 100.212 0.126953 87.4713 0.126953 74.5165C0.126953 33.9017 33.1698 0.859375 73.7841 0.859375C114.398 0.859375 147.441 33.9017 147.441 74.5165C147.441 80.9125 146.621 87.2612 145.002 93.3855L140.798 92.2745C142.321 86.5127 143.094 80.5377 143.094 74.5165C143.094 36.2992 112.001 5.20698 73.7841 5.20698C35.5668 5.20698 4.47456 36.2992 4.47456 74.5165C4.47456 86.7073 7.68289 98.6953 13.7536 109.183C19.6451 119.362 28.0922 127.942 38.1805 133.995L35.9431 137.723L35.9436 137.723Z" fill="#FF8CE7"/>
</g>
<defs>
<clipPath id="clip0_5002_5666">
<rect width="165.387" height="202.456" fill="white" transform="translate(0.128906 0.859375)"/>
</clipPath>
</defs>
</svg>
