<svg width="130" height="130" viewBox="0 0 130 130" fill="none" xmlns="http://www.w3.org/2000/svg">
<path d="M108.643 12.8512L101.569 0.935137C101.226 0.355215 100.601 0 99.9269 0H30.0339C29.3597 0 28.7354 0.355215 28.3914 0.935137L21.3183 12.8512C20.9679 13.4415 20.9613 14.1746 21.301 14.7712C21.6407 15.3677 22.2745 15.7363 22.9611 15.7363H107C107.687 15.7363 108.321 15.3679 108.66 14.771C109 14.1748 108.993 13.4415 108.643 12.8512Z" fill="#303030"/>
<path d="M96.6845 15.7366H107.012C107.698 15.7366 108.332 15.3682 108.672 14.7712C109.012 14.1748 109.005 13.4415 108.655 12.8512L101.581 0.935137C101.237 0.355215 100.613 0 99.9385 0H87.3438L96.6845 15.7366Z" fill="#232323"/>
<path d="M108.473 24.7337C108.11 24.3269 107.591 24.0944 107.047 24.0944H23.0077C22.4628 24.0944 21.9441 24.3269 21.5818 24.7337C21.2194 25.1405 21.0478 25.6825 21.1103 26.2236L23.5513 47.3628C23.6625 48.3267 24.4788 49.0541 25.449 49.0541H104.606C105.576 49.0541 106.393 48.3269 106.504 47.3628L108.945 26.2236C109.007 25.6825 108.836 25.1402 108.473 24.7337Z" fill="#E0E0E0"/>
<path d="M98.7177 96.1359H31.3165C30.7716 96.1359 30.2528 96.3684 29.8905 96.7752C29.5282 97.182 29.3566 97.724 29.4188 98.2651L32.8881 128.308C32.9994 129.272 33.8157 129.999 34.7858 129.999H95.2483C96.2185 129.999 97.0348 129.272 97.1457 128.308L100.615 98.2651C100.678 97.7238 100.506 97.182 100.143 96.7752C99.781 96.3684 99.262 96.1359 98.7177 96.1359Z" fill="#E0E0E0"/>
<path d="M107.018 24.0944H98.0698L95.1875 49.0539H104.577C105.547 49.0539 106.363 48.3267 106.474 47.3626L108.916 26.2234C108.978 25.682 108.807 25.1402 108.444 24.7334C108.082 24.3269 107.563 24.0944 107.018 24.0944Z" fill="#C6C6C6"/>
<path d="M100.148 96.7753C99.7857 96.3686 99.2667 96.136 98.7221 96.136H89.7737L85.8633 129.999H95.2527C96.2229 129.999 97.0392 129.272 97.1502 128.308L100.619 98.2652C100.683 97.7242 100.511 97.1821 100.148 96.7753Z" fill="#C6C6C6"/>
<path d="M112.25 11.9163H17.789C16.7341 11.9163 15.8789 12.7714 15.8789 13.8264V26.0053C15.8789 27.0602 16.7341 27.9154 17.789 27.9154H112.25C113.305 27.9154 114.16 27.0602 114.16 26.0053V13.8264C114.16 12.7714 113.305 11.9163 112.25 11.9163Z" fill="#494949"/>
<path d="M112.238 11.9163H100.777V27.9154H112.238C113.294 27.9154 114.149 27.0602 114.149 26.0053V13.8264C114.149 12.7714 113.293 11.9163 112.238 11.9163Z" fill="#303030"/>
<path d="M110.473 45.8736C110.11 45.4668 109.591 45.2343 109.046 45.2343H20.9297C20.3849 45.2343 19.8661 45.4668 19.5038 45.8736C19.1415 46.2803 18.9698 46.8224 19.032 47.3635L24.91 98.2659C25.0212 99.2297 25.8375 99.9571 26.8077 99.9571H103.168C104.139 99.9571 104.955 99.23 105.066 98.2659L110.944 47.3635C111.007 46.8224 110.835 46.2801 110.473 45.8736Z" fill="#FF9017"/>
<path d="M110.502 45.8736C110.14 45.4668 109.621 45.2343 109.076 45.2343H100.128L93.8086 99.9571H103.198C104.168 99.9571 104.985 99.23 105.095 98.2659L110.973 47.3635C111.036 46.8224 110.864 46.2801 110.502 45.8736Z" fill="#ED7D0C"/>
<path d="M65.0001 56.3672C56.5999 56.3672 49.7656 63.2583 49.7656 71.7285C49.7656 80.1987 56.5996 87.0898 65.0001 87.0898C73.4007 87.0898 80.2344 80.1987 80.2344 71.7285C80.2344 63.2581 73.4004 56.3672 65.0001 56.3672Z" fill="#7C3D1E"/>
</svg>
