<svg width="602" height="349" viewBox="0 0 602 349" fill="none" xmlns="http://www.w3.org/2000/svg">
<g filter="url(#filter0_d_4409_8880)">
<path d="M27.043 127.553C27.043 75.8851 68.9278 34.0002 120.595 34.0002H481.44C533.108 34.0002 574.993 75.8851 574.993 127.553V234.47C574.993 286.137 533.108 328.022 481.44 328.022H120.595C68.9279 328.022 27.043 286.137 27.043 234.47V127.553Z" fill="#81D829"/>
</g>
<mask id="mask0_4409_8880" style="mask-type:alpha" maskUnits="userSpaceOnUse" x="27" y="34" width="548" height="295">
<path d="M27.043 127.553C27.043 75.8851 68.9278 34.0002 120.595 34.0002H481.44C533.108 34.0002 574.993 75.8851 574.993 127.553V234.47C574.993 286.137 533.108 328.022 481.44 328.022H120.595C68.9279 328.022 27.043 286.137 27.043 234.47V127.553Z" fill="#81D829"/>
</mask>
<g mask="url(#mask0_4409_8880)">
<path d="M266.661 180.381C271.785 176.899 275.091 178.889 273.934 185.191L237.733 370.436C236.575 376.572 230.459 381.713 224.178 381.713H-13.8614C-20.143 381.713 -20.9695 378.728 -15.8451 375.245L266.661 180.547V180.381Z" fill="url(#paint0_linear_4409_8880)"/>
<path d="M533.132 163.794C528.007 167.277 527.677 173.579 532.47 177.559L771.005 374.247C775.799 378.227 774.642 381.544 768.36 381.544H539.413C533.132 381.544 524.04 378.227 519.246 374.247L284.844 181.042C280.05 177.062 280.215 170.925 285.505 167.277L568.011 -27.4211C573.135 -30.9038 582.558 -33.8889 588.839 -33.8889H808.695C814.976 -33.8889 815.803 -30.9038 810.678 -27.4211L533.132 163.96V163.794Z" fill="url(#paint1_linear_4409_8880)"/>
<path d="M343.044 -227.258C349.325 -227.258 353.458 -222.283 352.301 -216.146L278.244 162.304C277.087 168.44 272.128 170.264 267.334 166.284L114.592 40.2446C109.799 36.2644 106.823 27.9724 107.98 21.8362L154.431 -216.146C155.588 -222.283 161.704 -227.258 167.986 -227.258H343.044Z" fill="url(#paint2_linear_4409_8880)"/>
</g>
<rect x="68.6602" y="154.225" width="64.7367" height="55.4886" rx="11.5601" fill="#A7FF4E"/>
<path fill-rule="evenodd" clip-rule="evenodd" d="M108.465 167.602C108.465 166.599 109.278 165.785 110.282 165.785H114.521C116.863 165.785 118.761 167.683 118.761 170.025V174.265C118.761 175.268 117.948 176.082 116.944 176.082C115.941 176.082 115.127 175.268 115.127 174.265V170.025C115.127 169.69 114.856 169.419 114.521 169.419H110.282C109.278 169.419 108.465 168.606 108.465 167.602ZM84.8438 182.744C84.8438 181.74 85.6572 180.927 86.6608 180.927H116.944C117.948 180.927 118.761 181.74 118.761 182.744C118.761 183.747 117.948 184.561 116.944 184.561H86.6608C85.6572 184.561 84.8438 183.747 84.8438 182.744ZM88.4778 170.025C88.4778 169.69 88.7489 169.419 89.0834 169.419H93.3231C94.3266 169.419 95.1401 168.606 95.1401 167.602C95.1401 166.599 94.3266 165.785 93.3231 165.785H89.0834C86.7419 165.785 84.8438 167.683 84.8438 170.025V174.265C84.8438 175.268 85.6572 176.082 86.6608 176.082C87.6642 176.082 88.4778 175.268 88.4778 174.265V170.025ZM116.944 189.406C117.948 189.406 118.761 190.22 118.761 191.223V195.463C118.761 197.804 116.863 199.703 114.521 199.703H110.282C109.278 199.703 108.465 198.889 108.465 197.886C108.465 196.882 109.278 196.069 110.282 196.069H114.521C114.856 196.069 115.127 195.797 115.127 195.463V191.223C115.127 190.22 115.941 189.406 116.944 189.406ZM88.478 191.223C88.478 190.22 87.6646 189.406 86.661 189.406C85.6575 189.406 84.844 190.22 84.844 191.223V195.463C84.844 197.804 86.7422 199.702 89.0837 199.702H93.3231C94.3266 199.702 95.1401 198.889 95.1401 197.885C95.1401 196.882 94.3266 196.068 93.3231 196.068H89.0837C88.7492 196.068 88.478 195.797 88.478 195.463V191.223Z" fill="#66C10A"/>
<path d="M479.214 202.983C478.759 202.884 478.383 202.383 478.383 201.867L478.383 187.515C478.383 186.999 478.754 186.656 479.214 186.755L508.284 193.029C508.74 193.128 509.116 193.628 509.116 194.144L509.116 208.496C509.116 209.012 509.116 209.434 509.116 209.434C509.116 209.434 509.116 209.856 509.116 210.372L509.116 228.44C509.116 228.956 508.876 229.706 508.58 230.102L494.287 249.4C493.991 249.796 493.536 249.775 493.273 249.353L478.867 226.09C478.604 225.668 478.388 224.896 478.388 224.38L478.388 206.281C478.388 205.765 478.604 205.693 478.867 206.115L493.019 228.972C493.282 229.399 493.738 229.42 494.034 229.018L508.078 210.049C508.374 209.648 508.242 209.247 507.787 209.148L479.214 202.983ZM464.02 191.518C464.02 196.244 466.936 200.757 470.544 201.534C474.151 202.378 477.068 199.137 477.068 194.41C477.068 189.683 474.151 185.238 470.544 184.394C466.936 183.617 464.02 186.791 464.02 191.518ZM478.383 124.542C478.383 125.058 478.707 125.699 479.106 125.97L493.343 135.574C493.742 135.84 493.7 136.179 493.254 136.324L479.196 140.879C478.749 141.025 478.383 141.562 478.383 142.078L478.383 149.587C478.383 150.103 478.698 150.765 479.078 151.057L493.371 162.053C493.752 162.345 493.695 162.678 493.24 162.782L479.21 166.128C478.754 166.238 478.383 166.748 478.383 167.264L478.383 182.533C478.383 183.049 478.749 183.357 479.2 183.221L508.303 174.336C508.749 174.2 509.12 173.664 509.12 173.148L509.12 161.198C509.12 160.682 508.82 160.005 508.449 159.692L497.434 150.385C497.063 150.072 497.12 149.671 497.556 149.494L508.331 145.126C508.768 144.949 509.125 144.381 509.125 143.865L509.125 131.916C509.125 131.4 508.806 130.743 508.421 130.462L479.097 108.923C478.707 108.637 478.392 108.829 478.392 109.345L478.392 124.542L478.383 124.542ZM464.02 94.5817C464.02 99.3084 466.936 103.827 470.544 104.603C474.151 105.447 477.068 102.206 477.068 97.4792C477.068 92.7525 474.151 88.3072 470.544 87.463C466.936 86.6865 464.02 89.8602 464.02 94.5869L464.02 94.5817ZM508.284 112.321C508.74 112.42 509.116 112.076 509.116 111.56L509.116 97.2082C509.116 96.6923 508.74 96.1868 508.284 96.093L479.214 89.8185C478.759 89.7195 478.383 90.0635 478.383 90.5794L478.383 104.926C478.383 105.442 478.754 105.942 479.214 106.041L508.284 112.316L508.284 112.321ZM509.116 254.424C509.116 253.908 508.745 253.407 508.284 253.303L494.588 250.322C494.132 250.223 493.973 250.489 494.236 250.916L508.637 274.175C508.9 274.602 509.116 274.524 509.116 274.008L509.116 254.424ZM464.081 259.036C464.081 259.552 464.452 260.057 464.912 260.156L482.521 263.986C482.977 264.086 483.592 263.841 483.888 263.445L493.207 250.864C493.503 250.468 493.371 250.057 492.916 249.958L464.912 243.866C464.456 243.767 464.081 244.105 464.081 244.621L464.081 259.036Z" fill="#66BA11"/>
<defs>
<filter id="filter0_d_4409_8880" x="0.313713" y="0.588675" width="601.408" height="347.48" filterUnits="userSpaceOnUse" color-interpolation-filters="sRGB">
<feFlood flood-opacity="0" result="BackgroundImageFix"/>
<feColorMatrix in="SourceAlpha" type="matrix" values="0 0 0 0 0 0 0 0 0 0 0 0 0 0 0 0 0 0 127 0" result="hardAlpha"/>
<feOffset dy="-6.68231"/>
<feGaussianBlur stdDeviation="13.3646"/>
<feComposite in2="hardAlpha" operator="out"/>
<feColorMatrix type="matrix" values="0 0 0 0 0 0 0 0 0 0 0 0 0 0 0 0 0 0 0.1 0"/>
<feBlend mode="normal" in2="BackgroundImageFix" result="effect1_dropShadow_4409_8880"/>
<feBlend mode="normal" in="SourceGraphic" in2="effect1_dropShadow_4409_8880" result="shape"/>
</filter>
<linearGradient id="paint0_linear_4409_8880" x1="127.485" y1="178.68" x2="127.485" y2="381.713" gradientUnits="userSpaceOnUse">
<stop stop-color="#5FBD00"/>
<stop offset="1" stop-color="#5FBD00" stop-opacity="0"/>
</linearGradient>
<linearGradient id="paint1_linear_4409_8880" x1="215.924" y1="149.95" x2="623.201" y2="284.799" gradientUnits="userSpaceOnUse">
<stop stop-color="#5FBD00"/>
<stop offset="1" stop-color="#5FBD00" stop-opacity="0"/>
</linearGradient>
<linearGradient id="paint2_linear_4409_8880" x1="204.994" y1="175.483" x2="409.145" y2="-250.989" gradientUnits="userSpaceOnUse">
<stop stop-color="#5FBD00"/>
<stop offset="0.355545" stop-color="#5FBD00" stop-opacity="0"/>
</linearGradient>
</defs>
</svg>
