<svg width="112" height="112" viewBox="0 0 112 112" fill="none" xmlns="http://www.w3.org/2000/svg">
<g clip-path="url(#clip0_4544_16812)">
<path d="M104.006 87.1064H7.99382C3.85515 87.1064 0.5 83.7515 0.5 79.6126V78.1372C0.5 73.9986 3.85515 70.6434 7.99382 70.6434H104.006C108.145 70.6434 111.5 73.9986 111.5 78.1372V79.6126C111.5 83.7515 108.145 87.1064 104.006 87.1064Z" fill="#E94444"/>
<path d="M111.515 78.1362V79.612C111.515 83.7516 108.161 87.1074 104.022 87.1074H99.6367C103.776 87.1074 107.13 83.7516 107.13 79.612V78.1362C107.13 73.9989 103.776 70.6431 99.6367 70.6431H104.022C108.161 70.6431 111.515 73.9991 111.515 78.1362Z" fill="#D83131"/>
<path d="M103.99 87.1064H55.984H7.97783C7.97783 87.1064 4.66677 103.095 23.5086 109.384C26.7363 110.462 30.1059 110.963 33.4851 110.963H55.9842H78.4834C81.8626 110.963 85.2322 110.462 88.4598 109.384C107.301 103.095 103.99 87.1064 103.99 87.1064Z" fill="#FE9738"/>
<path d="M88.4841 109.384C85.2556 110.462 81.8864 110.965 78.5081 110.965H73.4219C76.8023 110.965 80.1715 110.462 83.4 109.384C102.24 103.094 98.9289 87.1077 98.9289 87.1077H104.015C104.015 87.1074 107.326 103.094 88.4841 109.384Z" fill="#FE860A"/>
<path d="M104.166 73.6282C104.166 77.3696 99.8189 79.3979 96.9284 77.0223C95.7403 76.0458 94.3371 75.272 92.1133 75.272C86.0877 75.272 86.0877 80.045 80.0619 80.045C74.0361 80.045 74.0361 75.272 68.0103 75.272C61.9847 75.272 61.9847 80.045 55.9592 80.045C49.9338 80.045 49.9338 75.272 43.9082 75.272C37.8824 75.272 37.8824 80.045 31.8566 80.045C25.8311 80.045 25.8311 75.272 19.8055 75.272C17.5827 75.272 16.1799 76.0453 14.992 77.0214C12.1014 79.397 7.75391 77.3692 7.75391 73.6276V64.7729H104.166V73.6282H104.166Z" fill="#BBEC6C"/>
<path d="M104.17 64.7732V73.6283C104.17 77.1293 100.363 79.1297 97.5078 77.4261C98.7692 76.6892 99.6757 75.3384 99.6757 73.6283V64.7732H104.17Z" fill="#A2E62E"/>
<path d="M7.83203 57.6781V64.8388H18.1679C20.3181 64.8388 22.0612 66.582 22.0612 68.7322V89.3555C22.0612 92.1046 24.2899 94.3332 27.039 94.3332C29.788 94.3332 32.0165 92.1046 32.0165 89.3555V68.7322C32.0165 66.582 33.7596 64.8388 35.9098 64.8388H104.196V57.6781H7.83203Z" fill="#FEE45A"/>
<path d="M99.6758 57.6777H104.17V64.8383H99.6758V57.6777Z" fill="#FEDF30"/>
<path d="M104.006 58.1683H7.99382C3.85515 58.1683 0.5 54.8134 0.5 50.6745V49.1991C0.5 45.0605 3.85515 41.7053 7.99382 41.7053H104.006C108.145 41.7053 111.5 45.0605 111.5 49.1991V50.6745C111.5 54.8134 108.145 58.1683 104.006 58.1683Z" fill="#9E5528"/>
<path d="M111.515 49.1987V50.6745C111.515 54.8141 108.161 58.1677 104.022 58.1677H99.6367C103.776 58.1677 107.13 54.8141 107.13 50.6745V49.1987C107.13 45.0614 103.776 41.7056 99.6367 41.7056H104.022C108.161 41.7058 111.515 45.0616 111.515 49.1987Z" fill="#904D24"/>
<path d="M55.9941 1.03687C18.5661 1.57851 5.99077 21.8813 1.83935 33.678C0.416708 37.7203 3.44981 41.9506 7.73502 41.9506H55.9941H104.253C108.57 41.9506 111.564 37.6777 110.124 33.6078C105.947 21.8009 93.348 1.57743 55.9941 1.03687Z" fill="#FE9738"/>
<path d="M104.242 41.9508H103.708C105.162 40.3297 105.76 37.9697 104.95 35.6745C100.772 23.8654 88.173 3.64348 50.8191 3.10313C41.1557 3.24146 33.1468 4.69954 26.5156 6.98804C34.0356 3.53389 43.6632 1.21405 55.9834 1.03552C93.3373 1.57804 105.937 21.8002 110.114 33.6069C111.552 37.6772 108.558 41.9508 104.242 41.9508Z" fill="#FE860A"/>
<path d="M40.5534 18.1998C40.2932 18.1998 40.0293 18.1369 39.7842 18.0046C38.9965 17.5791 38.7032 16.5954 39.1288 15.8078L40.5815 13.1199C41.0071 12.3322 41.9907 12.0389 42.7784 12.4645C43.566 12.8901 43.8593 13.8738 43.4337 14.6614L41.981 17.3493C41.6879 17.8918 41.1299 18.1998 40.5534 18.1998Z" fill="#E57917"/>
<path d="M56.0078 18.3833C55.1125 18.3833 54.3867 17.6575 54.3867 16.7622V13.7069C54.3867 12.8116 55.1125 12.0858 56.0078 12.0858C56.903 12.0858 57.6288 12.8116 57.6288 13.7069V16.7622C57.6288 17.6575 56.903 18.3833 56.0078 18.3833Z" fill="#E57917"/>
<path d="M71.4565 18.1773C70.8974 18.1773 70.3533 17.8877 70.0527 17.3692L68.5198 14.726C68.0707 13.9515 68.3344 12.9597 69.1088 12.5105C69.8832 12.0614 70.8751 12.3251 71.3242 13.0995L72.8571 15.7427C73.3062 16.5171 73.0426 17.509 72.2681 17.9581C72.0122 18.1069 71.7327 18.1773 71.4565 18.1773Z" fill="#E57917"/>
</g>
<defs>
<clipPath id="clip0_4544_16812">
<rect width="111" height="111" fill="white" transform="translate(0.5 0.5)"/>
</clipPath>
</defs>
</svg>
