<svg width="117" height="111" viewBox="0 0 117 111" fill="none" xmlns="http://www.w3.org/2000/svg">
<rect x="4.69922" y="11.96" width="106.248" height="99.0432" rx="9.97035" fill="#81BE56"/>
<path d="M0 9.23108C0 4.1329 4.13289 0 9.23108 0L39.7351 0C44.8333 0 48.9662 4.13289 48.9662 9.23108L48.9662 27.7513C48.9662 41.2729 38.0047 52.2344 24.4831 52.2344C10.9614 52.2344 0 41.2729 0 27.7513L0 9.23108Z" fill="#BDE930"/>
<path d="M34.1016 0L84.0696 0V27.2504C84.0696 41.0487 72.8839 52.2344 59.0856 52.2344C45.2873 52.2344 34.1016 41.0487 34.1016 27.2504L34.1016 0Z" fill="#FDF997"/>
<path d="M71.2852 0L108.131 0C112.812 0 116.607 3.79512 116.607 8.47663V29.5733C116.607 42.0887 106.462 52.2344 93.9463 52.2344C81.4309 52.2344 71.2852 42.0887 71.2852 29.5733V0Z" fill="#BDE930"/>
<circle cx="59.0918" cy="73.5203" r="14.7168" fill="#F8D25B"/>
<path d="M36.9492 105.719C36.9492 93.4961 46.8577 83.5876 59.0804 83.5876C71.3031 83.5876 81.2115 93.4961 81.2115 105.719V111.003H36.9492V105.719Z" fill="#F8D25B"/>
<path fill-rule="evenodd" clip-rule="evenodd" d="M67.8014 85.4388C65.3563 87.2484 62.3309 88.3184 59.0554 88.3184C55.7814 88.3184 52.7571 87.2492 50.3125 85.4411C52.9955 84.2854 55.9528 83.6453 59.0596 83.6453C62.1644 83.6453 65.1198 84.2846 67.8014 85.4388Z" fill="white"/>
</svg>
