<svg width="43" height="42" viewBox="0 0 43 42" fill="none" xmlns="http://www.w3.org/2000/svg">
<g id="Social Media / Instagram">
<g id="Logo 2">
<path id="Vector" d="M17.5102 20.9999C17.5102 18.8888 19.2221 17.177 21.3344 17.177C23.4467 17.177 25.1596 18.8888 25.1596 20.9999C25.1596 23.111 23.4467 24.8228 21.3344 24.8228C19.2221 24.8228 17.5102 23.111 17.5102 20.9999ZM15.4424 20.9999C15.4424 24.2521 18.0802 26.8884 21.3344 26.8884C24.5886 26.8884 27.2264 24.2521 27.2264 20.9999C27.2264 17.7477 24.5886 15.1114 21.3344 15.1114C18.0802 15.1114 15.4424 17.7477 15.4424 20.9999ZM26.0828 14.8779C26.0826 15.1501 26.1633 15.4162 26.3145 15.6425C26.4657 15.8689 26.6807 16.0454 26.9323 16.1496C27.1838 16.2539 27.4607 16.2812 27.7278 16.2282C27.9949 16.1752 28.2403 16.0443 28.433 15.8519C28.6256 15.6595 28.7568 15.4144 28.8101 15.1475C28.8633 14.8805 28.8362 14.6038 28.732 14.3523C28.6279 14.1008 28.4515 13.8859 28.2251 13.7346C27.9988 13.5833 27.7326 13.5024 27.4603 13.5023H27.4597C27.0947 13.5025 26.7446 13.6475 26.4864 13.9054C26.2283 14.1633 26.0831 14.5131 26.0828 14.8779ZM16.6987 30.3343C15.58 30.2834 14.9719 30.0971 14.5678 29.9398C14.0321 29.7314 13.6499 29.4831 13.248 29.082C12.8461 28.6809 12.5973 28.2993 12.3897 27.7639C12.2322 27.3602 12.0458 26.7523 11.995 25.6343C11.9393 24.4255 11.9282 24.0624 11.9282 21C11.9282 17.9376 11.9402 17.5755 11.995 16.3657C12.0459 15.2476 12.2336 14.6409 12.3897 14.2361C12.5982 13.7007 12.8466 13.3187 13.248 12.917C13.6493 12.5154 14.0312 12.2668 14.5678 12.0592C14.9717 11.9018 15.58 11.7156 16.6987 11.6648C17.9082 11.6092 18.2715 11.5981 21.3344 11.5981C24.3973 11.5981 24.761 11.6101 25.9715 11.6648C27.0902 11.7157 27.6973 11.9033 28.1024 12.0592C28.6381 12.2668 29.0203 12.5159 29.4222 12.917C29.8241 13.3181 30.072 13.7007 30.2805 14.2361C30.438 14.6397 30.6244 15.2476 30.6752 16.3657C30.7309 17.5755 30.742 17.9376 30.742 21C30.742 24.0624 30.7309 24.4245 30.6752 25.6343C30.6243 26.7523 30.437 27.36 30.2805 27.7639C30.072 28.2993 29.8236 28.6813 29.4222 29.082C29.0209 29.4828 28.6381 29.7314 28.1024 29.9398C27.6985 30.0972 27.0902 30.2835 25.9715 30.3343C24.762 30.3899 24.3987 30.401 21.3344 30.401C18.2702 30.401 17.9078 30.3899 16.6987 30.3343ZM16.6037 9.60167C15.3821 9.65727 14.5474 9.85084 13.8185 10.1343C13.0636 10.4271 12.4245 10.8198 11.7858 11.4571C11.1472 12.0943 10.7552 12.734 10.4623 13.4885C10.1787 14.2175 9.98498 15.0512 9.92935 16.272C9.87281 17.4947 9.85986 17.8856 9.85986 20.9999C9.85986 24.1141 9.87281 24.5051 9.92935 25.7278C9.98498 26.9487 10.1787 27.7823 10.4623 28.5113C10.7552 29.2653 11.1473 29.9058 11.7858 30.5427C12.4244 31.1797 13.0636 31.5719 13.8185 31.8655C14.5488 32.1489 15.3821 32.3425 16.6037 32.3981C17.8278 32.4537 18.2183 32.4676 21.3344 32.4676C24.4505 32.4676 24.8417 32.4546 26.0651 32.3981C27.2868 32.3425 28.1209 32.1489 28.8503 31.8655C29.6048 31.5719 30.2443 31.18 30.883 30.5427C31.5216 29.9055 31.9127 29.2653 32.2065 28.5113C32.4901 27.7823 32.6847 26.9486 32.7395 25.7278C32.7951 24.5041 32.808 24.1141 32.808 20.9999C32.808 17.8856 32.7951 17.4947 32.7395 16.272C32.6838 15.0511 32.4901 14.217 32.2065 13.4885C31.9127 12.7345 31.5206 12.0953 30.883 11.4571C30.2454 10.8188 29.6048 10.4271 28.8512 10.1343C28.1209 9.85084 27.2867 9.65635 26.066 9.60167C24.8426 9.54608 24.4514 9.53223 21.3353 9.53223C18.2192 9.53223 17.8278 9.54516 16.6037 9.60167Z" fill="url(#paint0_radial_229_7097)"/>
<path id="Vector_2" d="M17.5102 20.9999C17.5102 18.8888 19.2221 17.177 21.3344 17.177C23.4467 17.177 25.1596 18.8888 25.1596 20.9999C25.1596 23.111 23.4467 24.8228 21.3344 24.8228C19.2221 24.8228 17.5102 23.111 17.5102 20.9999ZM15.4424 20.9999C15.4424 24.2521 18.0802 26.8884 21.3344 26.8884C24.5886 26.8884 27.2264 24.2521 27.2264 20.9999C27.2264 17.7477 24.5886 15.1114 21.3344 15.1114C18.0802 15.1114 15.4424 17.7477 15.4424 20.9999ZM26.0828 14.8779C26.0826 15.1501 26.1633 15.4162 26.3145 15.6425C26.4657 15.8689 26.6807 16.0454 26.9323 16.1496C27.1838 16.2539 27.4607 16.2812 27.7278 16.2282C27.9949 16.1752 28.2403 16.0443 28.433 15.8519C28.6256 15.6595 28.7568 15.4144 28.8101 15.1475C28.8633 14.8805 28.8362 14.6038 28.732 14.3523C28.6279 14.1008 28.4515 13.8859 28.2251 13.7346C27.9988 13.5833 27.7326 13.5024 27.4603 13.5023H27.4597C27.0947 13.5025 26.7446 13.6475 26.4864 13.9054C26.2283 14.1633 26.0831 14.5131 26.0828 14.8779ZM16.6987 30.3343C15.58 30.2834 14.9719 30.0971 14.5678 29.9398C14.0321 29.7314 13.6499 29.4831 13.248 29.082C12.8461 28.6809 12.5973 28.2993 12.3897 27.7639C12.2322 27.3602 12.0458 26.7523 11.995 25.6343C11.9393 24.4255 11.9282 24.0624 11.9282 21C11.9282 17.9376 11.9402 17.5755 11.995 16.3657C12.0459 15.2476 12.2336 14.6409 12.3897 14.2361C12.5982 13.7007 12.8466 13.3187 13.248 12.917C13.6493 12.5154 14.0312 12.2668 14.5678 12.0592C14.9717 11.9018 15.58 11.7156 16.6987 11.6648C17.9082 11.6092 18.2715 11.5981 21.3344 11.5981C24.3973 11.5981 24.761 11.6101 25.9715 11.6648C27.0902 11.7157 27.6973 11.9033 28.1024 12.0592C28.6381 12.2668 29.0203 12.5159 29.4222 12.917C29.8241 13.3181 30.072 13.7007 30.2805 14.2361C30.438 14.6397 30.6244 15.2476 30.6752 16.3657C30.7309 17.5755 30.742 17.9376 30.742 21C30.742 24.0624 30.7309 24.4245 30.6752 25.6343C30.6243 26.7523 30.437 27.36 30.2805 27.7639C30.072 28.2993 29.8236 28.6813 29.4222 29.082C29.0209 29.4828 28.6381 29.7314 28.1024 29.9398C27.6985 30.0972 27.0902 30.2835 25.9715 30.3343C24.762 30.3899 24.3987 30.401 21.3344 30.401C18.2702 30.401 17.9078 30.3899 16.6987 30.3343ZM16.6037 9.60167C15.3821 9.65727 14.5474 9.85084 13.8185 10.1343C13.0636 10.4271 12.4245 10.8198 11.7858 11.4571C11.1472 12.0943 10.7552 12.734 10.4623 13.4885C10.1787 14.2175 9.98498 15.0512 9.92935 16.272C9.87281 17.4947 9.85986 17.8856 9.85986 20.9999C9.85986 24.1141 9.87281 24.5051 9.92935 25.7278C9.98498 26.9487 10.1787 27.7823 10.4623 28.5113C10.7552 29.2653 11.1473 29.9058 11.7858 30.5427C12.4244 31.1797 13.0636 31.5719 13.8185 31.8655C14.5488 32.1489 15.3821 32.3425 16.6037 32.3981C17.8278 32.4537 18.2183 32.4676 21.3344 32.4676C24.4505 32.4676 24.8417 32.4546 26.0651 32.3981C27.2868 32.3425 28.1209 32.1489 28.8503 31.8655C29.6048 31.5719 30.2443 31.18 30.883 30.5427C31.5216 29.9055 31.9127 29.2653 32.2065 28.5113C32.4901 27.7823 32.6847 26.9486 32.7395 25.7278C32.7951 24.5041 32.808 24.1141 32.808 20.9999C32.808 17.8856 32.7951 17.4947 32.7395 16.272C32.6838 15.0511 32.4901 14.217 32.2065 13.4885C31.9127 12.7345 31.5206 12.0953 30.883 11.4571C30.2454 10.8188 29.6048 10.4271 28.8512 10.1343C28.1209 9.85084 27.2867 9.65635 26.066 9.60167C24.8426 9.54608 24.4514 9.53223 21.3353 9.53223C18.2192 9.53223 17.8278 9.54516 16.6037 9.60167Z" fill="white"/>
</g>
</g>
<defs>
<radialGradient id="paint0_radial_229_7097" cx="0" cy="0" r="1" gradientUnits="userSpaceOnUse" gradientTransform="translate(12.9088 32.5759) scale(29.9581 29.9401)">
<stop offset="0.09" stop-color="#FA8F21"/>
<stop offset="0.78" stop-color="#D82D7E"/>
</radialGradient>
</defs>
</svg>
