<svg width="398" height="52" viewBox="0 0 398 52" fill="none" xmlns="http://www.w3.org/2000/svg">
<path d="M74.2694 17.517C74.371 16.9889 74.8924 16.5623 75.4273 16.5623H90.3376C90.8725 16.5623 91.2314 16.9957 91.1231 17.517L84.6023 51.0344C84.5008 51.5625 83.9794 51.9891 83.4445 51.9891H68.5341C67.9992 51.9891 67.5591 51.9891 67.5591 51.9891C67.5591 51.9891 67.119 51.9891 66.584 51.9891H47.8074C47.2724 51.9891 46.4937 51.7115 46.0807 51.373L26.0242 34.8919C25.6112 34.5533 25.6315 34.0252 26.0716 33.7205L50.245 17.1108C50.6851 16.8061 51.4841 16.5555 52.0258 16.5555H70.8364C71.3713 16.5555 71.4526 16.8061 71.0057 17.104L47.2521 33.4226C46.812 33.7273 46.7849 34.2554 47.2047 34.594L66.9158 50.7906C67.3289 51.1292 67.7555 50.9802 67.857 50.4521L74.2626 17.5103L74.2694 17.517ZM86.1868 0C81.2776 0 76.5852 3.36528 75.7794 7.52278C74.8991 11.6803 78.2712 15.0456 83.1804 15.0456C88.0895 15.0456 92.7143 11.6803 93.5946 7.52278C94.4003 3.36528 91.1027 0 86.1868 0ZM155.782 16.5623C155.247 16.5623 154.576 16.9347 154.299 17.3952L144.318 33.8085C144.04 34.2689 143.688 34.2215 143.539 33.7069L138.806 17.4967C138.657 16.9821 138.095 16.5623 137.56 16.5623H129.76C129.225 16.5623 128.534 16.9212 128.23 17.3613L116.8 33.8356C116.495 34.2757 116.15 34.208 116.041 33.6866L112.568 17.5103C112.452 16.9889 111.924 16.5555 111.389 16.5555H95.5244C94.9894 16.5555 94.6644 16.9754 94.8066 17.4967L104.043 51.0479C104.185 51.5625 104.74 51.9891 105.275 51.9891H117.693C118.228 51.9891 118.933 51.637 119.258 51.2104L128.927 38.5077C129.252 38.0811 129.665 38.1421 129.855 38.6499L134.391 51.0682C134.574 51.5693 135.163 51.9824 135.698 51.9824H148.117C148.652 51.9824 149.335 51.6167 149.633 51.1698L172.019 17.3613C172.317 16.9144 172.121 16.5488 171.586 16.5488H155.795L155.782 16.5623ZM186.923 0C182.014 0 177.321 3.36528 176.509 7.52278C175.628 11.6803 179 15.0456 183.916 15.0456C188.832 15.0456 193.45 11.6803 194.324 7.52278C195.129 3.36528 191.832 0 186.923 0ZM168.485 51.0412C168.383 51.5693 168.735 51.9959 169.27 51.9959H184.18C184.715 51.9959 185.237 51.5625 185.345 51.0412L191.866 17.5238C191.967 16.9957 191.615 16.5691 191.08 16.5691H176.17C175.635 16.5691 175.114 17.0024 175.012 17.5238L168.491 51.0412H168.485ZM20.8104 51.9959C21.3453 51.9959 21.8667 51.5625 21.975 51.0412L25.0763 35.2508C25.1778 34.7226 24.9002 34.5398 24.4601 34.8445L0.286707 51.4407C-0.153424 51.7454 -0.0789405 51.9891 0.455988 51.9891H20.8104V51.9959ZM16.0231 0.0677118C15.4882 0.0677118 14.9668 0.501067 14.8584 1.02245L10.8769 21.3224C10.7754 21.8506 11.0259 22.5548 11.439 22.9001L24.5142 33.646C24.9273 33.9846 25.3539 33.8356 25.4555 33.3074L31.7866 1.02922C31.8881 0.501067 31.536 0.074483 31.0011 0.074483H16.0231V0.0677118Z" fill="#212121"/>
<path d="M248.137 43.7468C248.137 45.4058 246.79 46.7533 245.124 46.7533C244.23 46.7533 243.397 46.2319 242.998 45.4329L241.495 42.4197C238.488 36.3798 233.85 27.0627 231.27 21.8624C229.625 18.5919 226.341 16.5673 222.704 16.5673C217.822 16.5673 213.848 20.542 213.848 25.424V52.0009H219.089V25.424C219.089 23.4265 220.714 21.8014 222.704 21.8014C224.323 21.8014 225.84 22.7426 226.564 24.1984C229.489 30.0961 235.522 42.2166 238.312 47.7689C239.599 50.3758 242.212 51.9941 245.124 51.9941C249.674 51.9941 253.371 48.2971 253.371 43.7468V16.5605H248.131V43.7468H248.137Z" fill="black"/>
<path d="M266.067 19.7091C264.062 21.6863 262.918 24.449 262.918 27.2929V41.2686C262.918 44.126 264.035 46.821 266.067 48.8455C268.098 50.8769 270.793 51.9941 273.644 51.9941H300.194V46.7533H273.644C272.174 46.7533 270.806 46.1777 269.77 45.1214C268.728 44.0989 268.152 42.7244 268.152 41.2618V36.5694H295.379V31.3082H268.152V27.2929C268.152 25.8303 268.728 24.4557 269.784 23.4265C270.806 22.3838 272.181 21.8014 273.644 21.8014H300.194V16.5605H273.644C270.786 16.5605 268.098 17.6778 266.067 19.7091Z" fill="black"/>
<path d="M330.481 16.5605H322.172C312.395 16.5605 304.445 24.5031 304.445 34.2672C304.445 44.0312 312.402 51.9941 322.172 51.9941H330.481C340.245 51.9941 348.188 44.038 348.188 34.2672C348.188 24.4964 340.245 16.5605 330.481 16.5605ZM342.947 34.2672C342.947 41.1535 337.354 46.7533 330.481 46.7533H322.172C315.286 46.7533 309.679 41.1535 309.679 34.2672C309.679 27.3809 315.279 21.8014 322.172 21.8014H330.481C337.354 21.8014 342.947 27.3944 342.947 34.2672Z" fill="black"/>
<path d="M392.02 16.5605V43.7468C392.02 45.4058 390.673 46.7533 389.007 46.7533C388.113 46.7533 387.28 46.2319 386.881 45.4329L385.289 42.2301C382.276 36.1834 377.712 27.0085 375.153 21.8556C373.507 18.5851 370.223 16.5605 366.587 16.5605C361.705 16.5605 357.73 20.5352 357.73 25.4173V51.9941H362.971V25.4173C362.971 23.4198 364.597 21.7947 366.587 21.7947C368.206 21.7947 369.722 22.7359 370.447 24.1917C373.358 30.0623 379.385 42.1624 382.195 47.7622C383.482 50.3691 386.095 51.9874 389.007 51.9874C393.557 51.9874 397.254 48.2903 397.254 43.7401V16.5605H392.013H392.02Z" fill="black"/>
</svg>
