<svg width="43" height="42" viewBox="0 0 43 42" fill="none" xmlns="http://www.w3.org/2000/svg">
<g id="Social Media / Linkedin">
<g id="Logo 11">
<path id="Vector" d="M16.9402 28.8386V18.5069H13.5061V28.8386H16.9406H16.9402ZM15.2239 17.0965C16.4212 17.0965 17.1666 16.3031 17.1666 15.3116C17.1442 14.2976 16.4212 13.5264 15.2467 13.5264C14.0713 13.5264 13.3037 14.2976 13.3037 15.3116C13.3037 16.303 14.0488 17.0964 15.2014 17.0964H15.2236L15.2239 17.0965ZM18.8411 28.8386H22.2749V23.0695C22.2749 22.7611 22.2973 22.4519 22.3881 22.2317C22.6362 21.6145 23.2012 20.9756 24.1501 20.9756C25.3924 20.9756 25.8897 21.923 25.8897 23.312V28.8386H29.3234V22.9147C29.3234 19.7414 27.6295 18.2646 25.3702 18.2646C23.5178 18.2646 22.7043 19.2999 22.2523 20.0051H22.2752V18.5072H18.8413C18.8861 19.4765 18.841 28.839 18.841 28.839L18.8411 28.8386Z" fill="white"/>
</g>
</g>
</svg>
