<svg width="13" height="18" viewBox="0 0 13 18" fill="none" xmlns="http://www.w3.org/2000/svg">
<path fill-rule="evenodd" clip-rule="evenodd" d="M0 6.47149C0 2.89368 2.89368 0 6.4715 0C10.0493 0 12.943 2.89368 12.943 6.47149C12.943 10.3267 8.8567 15.6425 7.18336 17.6672C6.81356 18.1109 6.13868 18.1109 5.76888 17.6672C4.08629 15.6425 0 10.3267 0 6.47149ZM4.16025 6.47171C4.16025 7.74752 5.19569 8.78296 6.4715 8.78296C7.7473 8.78296 8.78274 7.74752 8.78274 6.47171C8.78274 5.1959 7.7473 4.16046 6.4715 4.16046C5.19569 4.16046 4.16025 5.1959 4.16025 6.47171Z" fill="white"/>
</svg>
