<svg width="136" height="136" viewBox="0 0 136 136" fill="none" xmlns="http://www.w3.org/2000/svg">
<rect x="0.5" y="0.5" width="135" height="135" rx="34.1131" fill="#649C38"/>
<path d="M28.6904 54.7134H106.306L110.698 89.6829H25.3086L28.6904 54.7134Z" fill="#1F2D3A"/>
<mask id="mask0_4544_16748" style="mask-type:alpha" maskUnits="userSpaceOnUse" x="0" y="0" width="136" height="136">
<rect x="0.5" y="0.5" width="135" height="135" rx="34.1131" fill="#649C38"/>
</mask>
<g mask="url(#mask0_4544_16748)">
<path d="M125.846 135.502C125.846 120.159 119.752 105.445 108.903 94.5962C98.054 83.7474 83.3399 77.6526 67.9974 77.6526C52.6549 77.6526 37.9408 83.7474 27.092 94.5961C16.2432 105.445 10.1484 120.159 10.1484 135.502L67.9974 135.502L125.846 135.502Z" fill="#EDC95A"/>
<ellipse cx="67.6337" cy="67.9957" rx="36.9014" ry="40.6198" transform="rotate(-180 67.6337 67.9957)" fill="#FAF2E6"/>
<ellipse cx="67.6337" cy="67.9957" rx="36.9014" ry="40.6198" transform="rotate(-180 67.6337 67.9957)" fill="#FAF2E6"/>
<ellipse cx="67.6337" cy="67.9918" rx="36.9014" ry="40.6198" transform="rotate(-180 67.6337 67.9918)" fill="#FAF2E6"/>
</g>
<path fill-rule="evenodd" clip-rule="evenodd" d="M75.0012 57.6639H28.4492C29.1065 38.7307 48.7951 27.3821 67.6884 27.3821C86.5817 27.3821 105.544 40.6232 106.614 57.6639H88.1602L81.5807 48.4118L75.0012 57.6639Z" fill="#1F2D3A"/>
<path d="M46.2351 69.4876C46.2494 67.5352 47.9444 66.0209 49.886 66.226L66.2469 67.9535C67.4293 68.0784 68.621 68.087 69.805 67.9793L86.1578 66.4913C88.1023 66.3144 89.7754 67.8533 89.7611 69.8058C89.7487 71.5053 88.4491 72.9181 86.7566 73.0721L70.1051 74.5872C68.6893 74.716 67.2642 74.7057 65.8504 74.5564L49.1921 72.7974C47.5018 72.619 46.2227 71.1872 46.2351 69.4876Z" fill="#1F2D3A"/>
</svg>
