<svg width="28" height="32" viewBox="0 0 28 32" fill="none" xmlns="http://www.w3.org/2000/svg">
<path d="M15.2706 15.3153L20.3136 10.1365L4.02485 0.735187C2.9453 0.136223 1.93397 0.0521577 1.04714 0.707166L15.2706 15.3153ZM21.1731 21.3785L26.4156 18.3504C27.4389 17.7619 28 16.9283 28 16.0035C28 15.0806 27.4389 14.2452 26.4173 13.6567L21.6711 10.9193L16.3279 16.4046L21.1731 21.3785V21.3785ZM0.170544 1.9804C0.0613959 2.32542 0 2.71072 0 3.1328V28.8865C0 29.5538 0.143258 30.1282 0.402485 30.5853L14.2115 16.4028L0.170544 1.9804ZM15.2706 17.4887L1.53831 31.5924C1.80095 31.6957 2.08405 31.75 2.38251 31.75C2.91461 31.75 3.46888 31.5889 4.03338 31.2666L19.8173 22.1648L15.2706 17.4887V17.4887Z" fill="white"/>
</svg>
