<svg width="135" height="135" viewBox="0 0 135 135" fill="none" xmlns="http://www.w3.org/2000/svg">
<rect width="135" height="135" rx="34.1061" fill="#9F78FF"/>
<mask id="mask0_4544_16648" style="mask-type:alpha" maskUnits="userSpaceOnUse" x="0" y="0" width="135" height="135">
<rect width="135" height="135" rx="34.1061" fill="#BCA0FF"/>
</mask>
<g mask="url(#mask0_4544_16648)">
<path d="M53.6638 78.2778C42.9316 96.9383 20.8869 135.594 18.5664 140.931L125.018 133.97L93.6917 78.2778L53.6638 78.2778Z" fill="#BCA0FF"/>
<path fill-rule="evenodd" clip-rule="evenodd" d="M117.602 74.9832L122.542 68.828L117.248 62.9746L116.389 55.1292L108.506 54.7336L102.351 49.7938L96.4978 55.0877L88.6525 55.9472L88.2569 63.8295L83.3171 69.9847L88.611 75.8381L89.4704 83.6835L97.3528 84.0791L103.508 89.0189L109.361 83.725L117.207 82.8655L117.602 74.9832ZM112.411 69.8646C107.203 69.9394 102.859 65.3834 102.622 59.5959C102.725 65.3941 98.6448 70.2016 93.431 70.42C98.6513 70.3292 103.01 74.8912 103.247 80.6888C103.143 74.8999 107.21 70.0981 112.411 69.8646ZM102.617 58.7458C102.612 58.9348 102.611 59.1249 102.614 59.3161C102.606 59.125 102.594 58.9353 102.577 58.747L102.617 58.7458ZM92.7702 70.4564L92.7692 70.4228C92.9171 70.4278 93.0658 70.429 93.2152 70.4264C93.0659 70.4326 92.9175 70.4427 92.7702 70.4564ZM112.68 69.8566C112.833 69.8544 112.985 69.8562 113.136 69.8619L113.135 69.8243C112.985 69.8389 112.833 69.8497 112.68 69.8566ZM103.291 81.5266L103.252 81.5278C103.257 81.3419 103.258 81.1548 103.255 80.9667C103.263 81.1547 103.275 81.3414 103.291 81.5266Z" fill="white"/>
<circle cx="34.2213" cy="34.2213" r="34.2213" transform="matrix(-1 -2.45604e-07 -2.45705e-07 1 105.691 15.3987)" fill="#BDE930"/>
<circle cx="45.0305" cy="70.3815" r="8.82733" fill="black"/>
</g>
<path d="M36.4196 60.2859L85.7923 15.5062L85.6726 15.4744C79.3129 13.7865 61.3697 9.02403 46.114 19.9724C29.1917 32.1168 32.5922 50.8451 36.4196 60.2859Z" fill="black"/>
<path fill-rule="evenodd" clip-rule="evenodd" d="M58.3048 75.4128L62.7723 69.8461L57.9845 64.5523L57.2072 57.457L50.0785 57.0992L44.5117 52.6317L39.2179 57.4195L32.1226 58.1968L31.7648 65.3255L27.2973 70.8923L32.0851 76.1861L32.8624 83.2814L39.9911 83.6392L45.5579 88.1067L50.8517 83.3189L57.947 82.5416L58.3048 75.4128ZM36.341 71.2804C41.0838 71.1406 44.8149 66.8041 44.7531 61.5531C45.0001 66.7994 48.9806 70.9093 53.7238 70.7694C53.9027 70.7641 54.08 70.7529 54.2558 70.7359L54.2572 70.7807C54.0794 70.7739 53.9003 70.7731 53.7202 70.7784C48.9772 70.9183 45.246 75.255 45.3081 80.5063C45.0608 75.2604 41.0804 71.1509 36.3373 71.2907C36.1696 71.2957 36.0032 71.3059 35.8381 71.3212L35.8369 71.2793C36.0039 71.285 36.1719 71.2854 36.341 71.2804ZM44.7417 61.1667C44.7346 61.0158 44.7244 60.8658 44.7112 60.7168L44.7457 60.7158C44.7413 60.8653 44.7399 61.0156 44.7417 61.1667ZM45.3479 81.3189L45.3162 81.3198C45.32 81.1783 45.3212 81.036 45.3195 80.893C45.3262 81.0358 45.3357 81.1778 45.3479 81.3189Z" fill="white"/>
</svg>
