<svg width="72" height="20" viewBox="0 0 72 20" fill="none" xmlns="http://www.w3.org/2000/svg">
<path d="M67.8207 1.51281L71.8757 9.56464L63.3512 17.6204L67.8207 1.51281Z" fill="#616161"/>
<path d="M65.0126 1.51281L69.0616 9.56464L60.5428 17.6204L65.0126 1.51281Z" fill="#616161"/>
<path d="M0 14.6912L4.04304 0.125076H10.5068C12.5269 0.125076 13.8764 0.444875 14.5629 1.10389C15.2445 1.75761 15.3758 2.82467 14.965 4.32448C14.7165 5.20799 14.3388 5.9496 13.8199 6.53555C13.3052 7.12256 12.6265 7.58673 11.7906 7.92806C12.4997 8.09855 12.9509 8.43706 13.1531 8.94464C13.3543 9.45223 13.331 10.1924 13.0867 11.1628L12.595 13.1973L12.5936 13.2524C12.4517 13.8221 12.4937 14.1271 12.7249 14.1518L12.576 14.6912H8.20326C8.21809 14.3484 8.24527 14.042 8.27421 13.7847C8.30598 13.5214 8.34516 13.3174 8.38399 13.1772L8.79168 11.7226C8.99712 10.9662 9.00982 10.4385 8.81921 10.1345C8.62684 9.8225 8.1962 9.66896 7.51636 9.66896H5.67875L4.27742 14.6912H0ZM6.58803 6.38659H8.55624C9.24597 6.38659 9.75497 6.28811 10.0688 6.08444C10.384 5.87901 10.618 5.53203 10.7553 5.03009C10.8976 4.51968 10.8626 4.16388 10.6586 3.96162C10.4549 3.75618 9.96746 3.65629 9.20114 3.65629H7.34587L6.58803 6.38659Z" fill="#616161"/>
<path d="M26.9658 3.94326L23.9852 14.6919H20.3633L20.8084 13.1172C20.1709 13.7434 19.5186 14.2189 18.861 14.5228C18.2087 14.832 17.5204 14.9841 16.7957 14.9841C16.1967 14.9841 15.6824 14.8754 15.2683 14.6597C14.8493 14.4448 14.5373 14.1179 14.3273 13.6869C14.1409 13.3096 14.0597 12.8437 14.0915 12.287C14.125 11.7392 14.3185 10.8151 14.6771 9.52105L16.2217 3.94326H20.1836L18.6421 9.49493C18.4169 10.3075 18.3633 10.8786 18.473 11.1896C18.5874 11.5034 18.8927 11.6654 19.3883 11.6654C19.8874 11.6654 20.3071 11.4847 20.6538 11.1158C21.0053 10.7501 21.2768 10.2048 21.4808 9.47905L23.0095 3.94326H26.9658Z" fill="#616161"/>
<path d="M25.5286 14.6912L29.5674 0.125076H35.1233C36.3492 0.125076 37.298 0.197436 37.9747 0.356277C38.6499 0.508412 39.1794 0.755498 39.5729 1.10389C40.0661 1.55959 40.3682 2.12365 40.4925 2.80031C40.6093 3.47698 40.5401 4.26518 40.2842 5.1907C39.8317 6.81899 39.0385 8.06678 37.9083 8.93864C36.7745 9.79921 35.3718 10.2316 33.6976 10.2316H31.0975L29.8625 14.6912H25.5286ZM32.082 6.67427H33.4791C34.3824 6.67427 35.0174 6.56273 35.3894 6.34741C35.7495 6.12927 36.0054 5.7417 36.1614 5.1907C36.3174 4.63228 36.2772 4.24188 36.0414 4.02374C35.8144 3.80666 35.2345 3.69688 34.3065 3.69688H32.9122L32.082 6.67427Z" fill="#616161"/>
<path d="M44.9443 14.6914L44.9846 13.6706C44.3457 14.1489 43.6987 14.5104 43.0481 14.7363C42.4004 14.9664 41.7107 15.0833 40.9719 15.0833C39.8498 15.0833 39.0672 14.7783 38.6147 14.1881C38.1678 13.5969 38.0944 12.7479 38.3994 11.665C38.6913 10.5962 39.2105 9.80937 39.9596 9.30638C40.7043 8.79738 41.9482 8.4331 43.6934 8.20014C43.9147 8.16413 44.2112 8.13519 44.5825 8.09036C45.8727 7.94105 46.597 7.59724 46.753 7.03636C46.8342 6.72927 46.7848 6.50265 46.5942 6.36358C46.4103 6.21921 46.0665 6.14826 45.5702 6.14826C45.1582 6.14826 44.8268 6.23368 44.555 6.41123C44.2836 6.59054 44.081 6.85246 43.9436 7.22097H40.081C40.4297 6.01095 41.1424 5.09673 42.2123 4.48537C43.2783 3.86342 44.6838 3.56409 46.4247 3.56409C47.2433 3.56409 47.9764 3.64069 48.6245 3.80694C49.2736 3.96614 49.7481 4.1931 50.0559 4.46772C50.4346 4.81046 50.6587 5.20121 50.7226 5.63326C50.7964 6.06425 50.7156 6.68197 50.4897 7.49029L48.8282 13.4828C48.7749 13.6791 48.7646 13.8542 48.7936 14.0134C48.8282 14.1652 48.8945 14.295 49.0117 14.3879L48.9224 14.6914H44.9443ZM45.9073 9.89197C45.4865 10.061 44.9398 10.2231 44.2603 10.401C43.1932 10.6872 42.5928 11.0692 42.4629 11.5418C42.3729 11.8457 42.4092 12.0797 42.5578 12.2576C42.7043 12.4267 42.9588 12.5121 43.3175 12.5121C43.9751 12.5121 44.5031 12.3459 44.8967 12.0176C45.2913 11.6851 45.5864 11.1631 45.7929 10.443C45.8289 10.2898 45.8607 10.1796 45.8812 10.0974L45.9073 9.89197Z" fill="#616161"/>
<path d="M48.953 18.9262L49.8323 15.7448H50.9661C51.3448 15.7448 51.6427 15.6699 51.8538 15.5337C52.0681 15.3921 52.2139 15.1535 52.2979 14.8323C52.3399 14.6908 52.3656 14.5418 52.3833 14.3727C52.3946 14.1934 52.3946 14.0039 52.3833 13.7843L51.7783 3.94215H55.7885L55.7264 10.4638L59.2272 3.94215H62.9565L56.7673 14.6389C56.0649 15.8344 55.5545 16.6558 55.2304 17.1041C54.9106 17.5467 54.6071 17.8909 54.3123 18.1238C53.9304 18.4461 53.504 18.6745 53.0437 18.8076C52.5824 18.9435 51.8799 19.0112 50.9357 19.0112C50.6639 19.0112 50.3512 19.0059 50.013 18.9883C49.6773 18.9752 49.3191 18.9551 48.953 18.9262Z" fill="#616161"/>
</svg>
