<svg width="258" height="68" viewBox="0 0 258 68" fill="none" xmlns="http://www.w3.org/2000/svg">
<path d="M243.454 4.96823L257.96 33.7357L227.465 62.517L243.454 4.96823Z" fill="#27803B"/>
<path d="M233.408 4.96823L247.893 33.7357L217.418 62.517L233.408 4.96823Z" fill="#E9661C"/>
<path d="M0.835938 52.0511L15.2993 0.00972748H38.4225C45.6491 0.00972748 50.4765 1.1523 52.9325 3.50682C55.3709 5.84241 55.8406 9.65478 54.3708 15.0133C53.4818 18.1699 52.1307 20.8195 50.2745 22.9129C48.4334 25.0102 46.0052 26.6686 43.015 27.8881C45.5519 28.4972 47.1656 29.7066 47.8892 31.5201C48.6089 33.3336 48.5256 35.9782 47.6518 39.445L45.8928 46.7141L45.8878 46.9108C45.3801 48.9463 45.5304 50.0359 46.3575 50.1242L45.8246 52.0511H30.1819C30.2349 50.8266 30.3321 49.7319 30.4357 48.8126C30.5493 47.8718 30.6895 47.1429 30.8284 46.6422L32.2868 41.4451C33.0218 38.7425 33.0672 36.8572 32.3853 35.7713C31.6971 34.6565 30.1566 34.1079 27.7246 34.1079H21.1508L16.1377 52.0511H0.835938ZM24.4036 22.3808H31.4446C33.912 22.3808 35.7328 22.0289 36.8554 21.3012C37.983 20.5673 38.8202 19.3276 39.3114 17.5343C39.8203 15.7107 39.6953 14.4395 38.9654 13.7169C38.2368 12.9829 36.493 12.626 33.7516 12.626H27.1147L24.4036 22.3808Z" fill="#66686C"/>
<path d="M97.3024 13.6512L86.6399 52.0536H73.683L75.2753 46.4277C72.9948 48.6649 70.6612 50.3637 68.3088 51.4495C65.9752 52.5542 63.5129 53.0978 60.9205 53.0978C58.7776 53.0978 56.9378 52.7094 55.4567 51.9388C53.9578 51.1708 52.8415 50.003 52.0902 48.4632C51.4235 47.115 51.1331 45.4503 51.2467 43.4616C51.3667 41.5043 52.0586 38.2027 53.3416 33.5794L58.8673 13.6512H73.0402L67.5259 33.4861C66.7202 36.3892 66.5283 38.4297 66.921 39.5407C67.3301 40.6619 68.4224 41.2407 70.1953 41.2407C71.9808 41.2407 73.4822 40.595 74.7222 39.2772C75.9799 37.9706 76.9509 36.0222 77.6808 33.4293L83.1497 13.6512H97.3024Z" fill="#66686C"/>
<path d="M92.1602 52.051L106.608 0.00960541H126.484C130.869 0.00960541 134.263 0.268135 136.684 0.83564C139.1 1.37918 140.994 2.26197 142.402 3.50669C144.166 5.1348 145.247 7.15007 145.691 9.56764C146.109 11.9852 145.862 14.8013 144.946 18.108C143.327 23.9255 140.49 28.3836 136.447 31.4985C132.391 34.5731 127.373 36.118 121.384 36.118H112.082L107.664 52.051H92.1602ZM115.604 23.4084H120.602C123.833 23.4084 126.105 23.0099 127.436 22.2406C128.724 21.4613 129.639 20.0766 130.197 18.108C130.756 16.1129 130.612 14.7181 129.768 13.9387C128.956 13.1631 126.882 12.7709 123.562 12.7709H118.574L115.604 23.4084Z" fill="#66686C"/>
<path d="M161.617 52.0523L161.761 48.4051C159.476 50.114 157.161 51.4053 154.834 52.2125C152.517 53.0347 150.049 53.4521 147.406 53.4521C143.392 53.4521 140.593 52.3625 138.974 50.2539C137.375 48.1416 137.113 45.1086 138.204 41.2395C139.248 37.4208 141.105 34.6097 143.785 32.8126C146.449 30.9941 150.899 29.6926 157.142 28.8603C157.934 28.7317 158.995 28.6282 160.323 28.4681C164.938 27.9346 167.529 26.7063 168.087 24.7024C168.378 23.6052 168.201 22.7956 167.519 22.2987C166.861 21.7829 165.631 21.5294 163.856 21.5294C162.382 21.5294 161.197 21.8346 160.224 22.4689C159.253 23.1096 158.529 24.0453 158.037 25.3619H144.219C145.467 21.0388 148.016 17.7725 151.844 15.5882C155.657 13.3662 160.685 12.2967 166.913 12.2967C169.841 12.2967 172.464 12.5704 174.782 13.1644C177.105 13.7331 178.802 14.544 179.903 15.5252C181.258 16.7497 182.06 18.1458 182.288 19.6894C182.552 21.2292 182.263 23.4362 181.455 26.3242L175.511 47.7342C175.32 48.4354 175.284 49.0609 175.387 49.6297C175.511 50.172 175.748 50.6361 176.168 50.9677L175.848 52.0523H161.617ZM165.062 34.9048C163.557 35.5089 161.601 36.0878 159.17 36.7234C155.353 37.7461 153.205 39.1107 152.74 40.7993C152.418 41.8851 152.548 42.7213 153.08 43.3569C153.604 43.961 154.514 44.2661 155.797 44.2661C158.15 44.2661 160.039 43.6722 161.447 42.4993C162.858 41.3113 163.914 39.4461 164.653 36.8735C164.782 36.3261 164.895 35.9327 164.969 35.6388L165.062 34.9048Z" fill="#66686C"/>
<path d="M175.957 67.1822L179.103 55.8157H183.158C184.513 55.8157 185.579 55.5483 186.334 55.0615C187.101 54.5558 187.622 53.7033 187.923 52.5557C188.073 52.05 188.165 51.5178 188.228 50.9137C188.269 50.273 188.269 49.5958 188.228 48.8114L186.064 13.6476H200.41L200.188 36.948L212.711 13.6476H226.052L203.911 51.8646C201.399 56.136 199.573 59.0706 198.413 60.6722C197.269 62.2537 196.183 63.4833 195.129 64.3156C193.763 65.467 192.237 66.283 190.591 66.7584C188.94 67.2439 186.428 67.4861 183.05 67.4861C182.078 67.4861 180.959 67.4672 179.749 67.4041C178.548 67.3574 177.266 67.2856 175.957 67.1822Z" fill="#66686C"/>
</svg>
