<svg width="43" height="42" viewBox="0 0 43 42" fill="none" xmlns="http://www.w3.org/2000/svg">
<g id="Social Media / Twitter">
<g id="Capa 2">
<g id="ELEMENTS">
<path id="Vector" d="M31.9569 14.287C31.2634 14.5854 30.5343 14.7933 29.7877 14.9053C30.1368 14.8455 30.6504 14.2172 30.8549 13.9629C31.1655 13.5793 31.4022 13.1413 31.553 12.6713C31.553 12.6364 31.5879 12.5866 31.553 12.5616C31.5354 12.552 31.5157 12.547 31.4956 12.547C31.4756 12.547 31.4559 12.552 31.4383 12.5616C30.6276 13.0007 29.7647 13.3358 28.8702 13.559C28.839 13.5685 28.8058 13.5693 28.7742 13.5614C28.7426 13.5535 28.7137 13.5372 28.6907 13.5141C28.6211 13.4312 28.5461 13.3529 28.4663 13.2797C28.1014 12.9528 27.6875 12.6853 27.2396 12.4868C26.635 12.2388 25.9819 12.1314 25.3297 12.1727C24.6969 12.2127 24.0791 12.3824 23.5146 12.6713C22.9588 12.976 22.4703 13.3899 22.0785 13.8881C21.6663 14.4009 21.3688 14.996 21.2058 15.6334C21.0715 16.2397 21.0562 16.8663 21.161 17.4784C21.161 17.5831 21.161 17.5981 21.0712 17.5831C17.5158 17.0595 14.5986 15.7979 12.215 13.0902C12.1103 12.9705 12.0555 12.9705 11.9707 13.0902C10.9335 14.666 11.4371 17.1593 12.7336 18.3909C12.9082 18.5555 13.0877 18.7151 13.2772 18.8647C12.6827 18.8225 12.1028 18.6614 11.5718 18.3909C11.472 18.3261 11.4172 18.361 11.4122 18.4807C11.3981 18.6466 11.3981 18.8134 11.4122 18.9794C11.5163 19.7745 11.8296 20.5278 12.3203 21.1621C12.8109 21.7964 13.4612 22.2891 14.2047 22.5896C14.3859 22.6673 14.5748 22.7258 14.7682 22.7642C14.2179 22.8725 13.6535 22.8894 13.0977 22.814C12.978 22.7891 12.9331 22.8539 12.978 22.9686C13.711 24.9633 15.3017 25.5716 16.4686 25.9107C16.6282 25.9356 16.7877 25.9356 16.9672 25.9755C16.9672 25.9755 16.9672 25.9755 16.9373 26.0054C16.5933 26.6338 15.202 27.0576 14.5637 27.277C13.3987 27.6955 12.1566 27.8554 10.9235 27.7458C10.729 27.7158 10.6842 27.7208 10.6343 27.7458C10.5844 27.7707 10.6343 27.8256 10.6892 27.8754C10.9385 28.04 11.1878 28.1846 11.4471 28.3242C12.2191 28.7453 13.0352 29.0797 13.8806 29.3215C18.2588 30.5283 23.1855 29.6407 26.4717 26.3745C29.0547 23.8114 29.9623 20.2759 29.9623 16.7354C29.9623 16.6008 30.1268 16.521 30.2216 16.4512C30.8751 15.942 31.4512 15.3407 31.932 14.666C32.0152 14.5654 32.0579 14.4374 32.0516 14.3069C32.0516 14.2321 32.0516 14.2471 31.9569 14.287Z" fill="white"/>
</g>
</g>
</g>
</svg>
