<svg width="21" height="20" viewBox="0 0 21 20" fill="none" xmlns="http://www.w3.org/2000/svg">
<g id="round-phone-24px">
<g id="Whatsapp">
<path id="Vector" d="M18.2663 6.27027C17.8597 5.37191 17.2761 4.56535 16.5352 3.87027C15.7942 3.18175 14.9352 2.63748 13.9778 2.25716C12.9876 1.86371 11.9384 1.66699 10.8565 1.66699C9.77449 1.66699 8.72531 1.86371 7.73514 2.25716C6.77777 2.63748 5.91875 3.17519 5.17777 3.87027C4.43678 4.56535 3.85318 5.37191 3.44663 6.27027C3.02695 7.20142 2.81055 8.19814 2.81055 9.22109C2.81055 11.0113 3.47939 12.7293 4.70562 14.0932L4.04988 17.667L7.53842 16.1129C8.58104 16.5588 9.68924 16.7817 10.8499 16.7817C11.9319 16.7817 12.9811 16.585 13.9712 16.1916C14.9286 15.8113 15.7876 15.2735 16.5286 14.5785C17.2696 13.8834 17.8532 13.0768 18.2597 12.1785C18.6794 11.2473 18.8958 10.2506 18.8958 9.22765C18.9024 8.19814 18.686 7.20798 18.2663 6.27027Z" fill="white"/>
<path id="Vector_2" d="M14.1221 10.7294C13.7811 10.559 13.532 10.454 13.3549 10.3885C13.2434 10.3491 12.9811 10.2311 12.8893 10.3032C12.6008 10.5393 12.2926 11.2081 11.9647 11.3327C11.1516 11.1753 10.3975 10.618 9.80736 10.0475C9.54507 9.79829 9.05982 9.0901 8.9549 8.89993C8.93523 8.70321 9.28932 8.44092 9.368 8.2901C9.77456 7.83108 9.46638 7.54256 9.41392 7.35239C9.32212 7.15567 9.16475 6.80157 9.02704 6.51305C8.90901 6.32289 8.88275 6.04092 8.67292 5.936C7.78111 5.47698 7.26966 6.39502 7.05983 6.8737C5.79425 9.92288 13.4008 15.7262 14.9483 11.7262C15.027 11.3786 14.9942 11.2475 14.8762 11.0901C14.6401 10.9262 14.3647 10.854 14.1221 10.7294Z" fill="#0A0A0A"/>
</g>
</g>
</svg>
