<svg width="123" height="21" viewBox="0 0 123 21" fill="none" xmlns="http://www.w3.org/2000/svg">
<path d="M9.4267 15.7471C10.421 15.7275 10.8363 14.4572 10.0643 13.8294C9.96414 13.7463 9.8591 13.6633 9.75405 13.5778C5.88205 10.4387 4.73144 11.1862 0.847224 12.5298C0.707979 12.5786 0.722636 12.7765 0.866768 12.8058C2.0247 13.0477 3.15821 13.7976 4.60929 15.344L9.03095 15.73C9.16286 15.7422 9.29479 15.7471 9.42426 15.7446L9.4267 15.7471Z" fill="#909090"/>
<path d="M27.6291 0.112889L12.7885 14.9682C11.7038 16.0553 10.1941 16.6049 8.66241 16.4705L5.11287 16.1603L8.8041 19.7245C10.7315 21.586 13.8756 21.2489 15.3633 19.0185L27.849 0.293661C27.9442 0.14953 27.7513 -0.00925628 27.6291 0.112889Z" fill="#909090"/>
<path d="M33.0208 5.45372L35.8912 11.1408C35.9351 11.2409 36.0719 11.2409 36.1159 11.1408L38.9301 5.45372C38.9863 5.34134 39.0425 5.28516 39.2111 5.28516H42.2623C42.3526 5.28516 42.4088 5.36333 42.3527 5.4757L37.5792 14.4631V19.024C37.5792 19.1364 37.523 19.1926 37.4107 19.1926H34.5402C34.4279 19.1926 34.3717 19.1364 34.3717 19.024V14.4069L29.6422 5.45372C29.586 5.35356 29.63 5.28516 29.7424 5.28516H32.7936C32.9059 5.28516 32.9621 5.34134 33.0183 5.45372H33.0208Z" fill="#616161"/>
<path d="M53.1227 16.4907V19.024C53.1227 19.1364 53.0665 19.1926 52.9541 19.1926H43.4952C43.3828 19.1926 43.3266 19.1364 43.3266 19.024V5.45372C43.3266 5.34134 43.3828 5.28516 43.4952 5.28516H53.4623C53.5746 5.28516 53.621 5.39753 53.5746 5.5099C53.4623 5.79084 52.7856 7.64988 52.6952 7.87463C52.6512 7.987 52.5926 8.04319 52.4484 8.04319H46.649C46.5366 8.04319 46.4804 8.09938 46.4804 8.21175V10.6889C46.4804 10.8012 46.5366 10.8574 46.649 10.8574H51.7718C51.8841 10.8574 51.9403 10.9136 51.9403 11.026V13.2783C51.9403 13.3907 51.8841 13.4469 51.7718 13.4469H46.649C46.5366 13.4469 46.4804 13.5031 46.4804 13.6154V16.1487C46.4804 16.2611 46.5366 16.3173 46.649 16.3173H52.9541C53.0665 16.3173 53.1227 16.3735 53.1227 16.4859V16.4907Z" fill="#616161"/>
<path d="M63.5958 8.15703H58.7882C57.9772 8.15703 57.6278 8.55034 57.6278 9.11465C57.6278 9.73515 58.1335 10.082 59.2035 10.4656L61.1187 11.1423C63.4395 11.9631 64.5535 12.8889 64.5535 15.1388C64.5535 17.5598 62.9778 19.1916 59.4307 19.1916H54.7574C54.645 19.1916 54.5889 19.1354 54.5889 19.0231V16.4898C54.5889 16.3774 54.645 16.3212 54.7574 16.3212H59.8362C60.828 16.3212 61.2311 15.8815 61.2311 15.2072C61.2311 14.4524 60.7352 14.1031 59.3721 13.6194L57.6278 12.9989C55.8152 12.3564 54.3055 11.433 54.3055 9.28321C54.3055 6.63755 56.2769 5.28662 59.1473 5.28662H63.5958C63.7082 5.28662 63.7644 5.34281 63.7644 5.45518V7.98847C63.7644 8.10084 63.7082 8.15703 63.5958 8.15703Z" fill="#616161"/>
<path d="M70.8587 19.024V5.45372C70.8587 5.34134 70.9148 5.28516 71.0272 5.28516H78.009C80.5985 5.28516 81.7247 7.1442 81.7247 8.88843C81.7247 10.2394 81.048 11.4779 79.8095 12.0422C81.5537 12.5479 82.3428 13.7303 82.3428 15.3646C82.3428 17.7855 80.5985 19.1926 77.7819 19.1926H71.0248C70.9124 19.1926 70.8562 19.1364 70.8562 19.024H70.8587ZM74.0686 8.15801V10.7475C74.0686 10.8599 74.1248 10.916 74.2372 10.916H76.9952C78.009 10.916 78.5709 10.4421 78.5709 9.46251C78.5709 8.55131 78.0652 7.987 76.9952 7.987H74.2372C74.1248 7.987 74.0686 8.04319 74.0686 8.15556V8.15801ZM74.0686 13.6179V16.3197C74.0686 16.4321 74.1248 16.4883 74.2372 16.4883H77.4472C78.5172 16.4883 79.079 15.8678 79.079 15.025C79.079 14.1236 78.5734 13.4493 77.4472 13.4493H74.2372C74.1248 13.4493 74.0686 13.5055 74.0686 13.6179Z" fill="#616161"/>
<path d="M87.5244 5.28516H90.7564C90.9151 5.28516 90.9469 5.34134 90.9811 5.45372L95.6422 19.024C95.6764 19.1144 95.6422 19.1926 95.542 19.1926H92.613C92.4884 19.1926 92.4322 19.1364 92.398 19.024L91.5088 16.266C91.4648 16.1316 91.4184 16.0974 91.2938 16.0974H87.0383C86.9137 16.0974 86.8697 16.1316 86.8233 16.266L85.956 19.024C85.9121 19.1584 85.8657 19.1926 85.7411 19.1926H82.8584C82.6899 19.1926 82.6337 19.1364 82.6899 18.9678L87.2948 5.45372C87.329 5.34134 87.3632 5.28516 87.5195 5.28516H87.5244ZM90.7344 13.7205L89.2149 8.6759C89.1929 8.58551 89.1025 8.58551 89.0805 8.6759L87.5488 13.7327C87.5146 13.8451 87.5708 13.9013 87.6832 13.9013H90.6C90.7124 13.9013 90.7686 13.8451 90.7344 13.7205Z" fill="#616161"/>
<path d="M99.6532 19.1926H96.8389C96.7266 19.1926 96.6704 19.1364 96.6704 19.024V5.45372C96.6704 5.34134 96.7266 5.28516 96.8389 5.28516H99.0913L99.2037 5.34134L105.453 13.5055V5.45372C105.453 5.34134 105.509 5.28516 105.621 5.28516H108.435C108.548 5.28516 108.604 5.34134 108.604 5.45372V19.0802C108.604 19.1364 108.548 19.1926 108.492 19.1926H106.239L106.127 19.1364L99.8217 11.0284V19.024C99.8217 19.1364 99.7655 19.1926 99.6532 19.1926Z" fill="#616161"/>
<path d="M110.856 19.0235V5.45323C110.856 5.34086 110.912 5.28467 111.025 5.28467H113.839C113.951 5.28467 114.007 5.34086 114.007 5.45323V11.0157C114.007 11.1061 114.108 11.1281 114.166 11.0597L119.054 5.45079C119.167 5.3262 119.213 5.28223 119.392 5.28223H122.387C122.511 5.28223 122.567 5.44102 122.477 5.54118L117.635 11.3846C117.591 11.4408 117.591 11.497 117.635 11.5654L122.904 18.9649C122.973 19.0553 122.917 19.1897 122.758 19.1897H119.594C119.47 19.1897 119.426 19.1555 119.37 19.0773L115.564 13.7053C115.52 13.6492 115.451 13.6492 115.383 13.7176L114.066 15.1369C114.032 15.1711 114.01 15.2053 114.01 15.2712V19.0211C114.01 19.1335 113.954 19.1897 113.841 19.1897H111.027C110.915 19.1897 110.859 19.1335 110.859 19.0211L110.856 19.0235Z" fill="#616161"/>
</svg>
