<svg width="43" height="42" viewBox="0 0 43 42" fill="none" xmlns="http://www.w3.org/2000/svg">
<path fill-rule="evenodd" clip-rule="evenodd" d="M38.2994 6.89908C40.1506 7.39464 41.6056 8.84945 42.101 10.7007C42.9966 14.0528 43.0002 21.0508 43.0002 21.0508C43.0002 21.0508 43.0002 28.0488 42.101 31.4009C41.6056 33.2521 40.1506 34.7069 38.2994 35.2024C34.9474 36.1015 21.5 36.1015 21.5 36.1015C21.5 36.1015 8.05279 36.1015 4.7007 35.2024C2.84945 34.7069 1.39464 33.2521 0.899081 31.4009C0 28.0488 0 21.0508 0 21.0508C0 21.0508 0 14.0528 0.899081 10.7007C1.39464 8.84945 2.84945 7.39464 4.7007 6.89908C8.05279 6 21.5 6 21.5 6C21.5 6 34.9474 6 38.2994 6.89908ZM28.3679 21.0506L17.1967 27.4999V14.6013L28.3679 21.0506Z" fill="white"/>
</svg>
